<?xml version="1.0" standalone="no"?>
<!DOCTYPE svg PUBLIC "-//W3C//DTD SVG 1.1//EN" "http://www.w3.org/Graphics/SVG/1.1/DTD/svg11.dtd" >
<svg>
<metadata>
Created by FontForge 20090622 at Sat Jan 26 23:40:26 2019
 By deploy user
2010 Neville Brody published by FSI FontShop International GmbH
</metadata>
<defs>
<font id="TypefaceFourOneOT" horiz-adv-x="124" >
  <font-face 
    font-family="TypefaceFourOneOT"
    font-weight="400"
    font-stretch="normal"
    units-per-em="1000"
    panose-1="2 1 5 4 2 1 1 2 1 4"
    ascent="800"
    descent="-200"
    x-height="667"
    cap-height="671"
    bbox="-20 -200 700 800"
    underline-thickness="20"
    underline-position="-113"
    unicode-range="U+000D-U+FB02"
  />
<missing-glyph horiz-adv-x="500" 
 />
    <glyph glyph-name="f_i" unicode="fi" horiz-adv-x="140" 
d="M96 46q0 -28 -8 -50q-8 22 -8 50v292h-32v-287q0 -26 -2.5 -34.5t-13.5 -20.5v342h-16v16h16v285q0 13 9 22.5t23 9.5t23 -9.5t9 -22.5v-92h-16v92q0 16 -16 16t-16 -16v-285h32v102q0 28 8 50q8 -22 8 -50v-410z" />
    <glyph glyph-name="f_l" unicode="fl" horiz-adv-x="130" 
d="M98 46q0 -28 -8 -50q-8 22 -8 50v592q0 17 -16 17t-16 -16v-285h18v-16h-18v-287q0 -26 -2.5 -34.5t-13.5 -20.5v342h-16v16h16v285q0 13 9 22.5t23 9.5t23 -9.5t9 -22.5v-593z" />
    <glyph glyph-name=".notdef" horiz-adv-x="500" 
 />
    <glyph glyph-name=".null" horiz-adv-x="0" 
 />
    <glyph glyph-name=".null" horiz-adv-x="0" 
 />
    <glyph glyph-name="nonmarkingreturn" horiz-adv-x="333" 
 />
    <glyph glyph-name="CR" unicode="&#xd;" horiz-adv-x="80" 
 />
    <glyph glyph-name="space" unicode=" " horiz-adv-x="80" 
 />
    <glyph glyph-name="exclam" unicode="!" horiz-adv-x="80" 
d="M48 206q0 -28 -8 -50q-8 22 -8 50v415q0 28 8 50q8 -22 8 -50v-415zM48 0h-16v120h16v-120z" />
    <glyph glyph-name="quotedbl" unicode="&#x22;" horiz-adv-x="104" 
d="M84 564q0 -29 -8 -50q-8 25 -8 50v107h16v-107zM36 564q0 -29 -8 -50q-8 25 -8 50v107h16v-107z" />
    <glyph glyph-name="numbersign" unicode="#" horiz-adv-x="188" 
d="M182 298q-22 -8 -50 -8h-7v-244q0 -29 -8 -50q-8 22 -8 50v244h-32v-244q0 -29 -8 -50q-8 22 -8 50v244h-7q-29 0 -50 8q22 8 50 8h7v73h-7q-29 0 -50 8q22 8 50 8h7v226q0 28 8 50q8 -22 8 -50v-226h32v226q0 28 8 50q8 -22 8 -50v-226h7q28 0 50 -8q-22 -8 -50 -8h-7
v-73h7q28 0 50 -8zM109 306v73h-32v-73h32z" />
    <glyph glyph-name="dollar" unicode="$" horiz-adv-x="120" 
d="M92 28q0 -26 -24 -31v-63h-16v63q-24 5 -24 31v128h16v-128q0 -16 16 -16t16 16v294q0 16 -16 16q-13 0 -22.5 9.5t-9.5 22.5v269q0 26 24 31v64h16v-64q24 -5 24 -31v-128h-16v128q0 16 -16 16t-16 -16v-269q0 -6 4.5 -11t11.5 -5q14 0 23 -9t9 -23v-294z" />
    <glyph glyph-name="percent" unicode="%" horiz-adv-x="208" 
d="M184 28q0 -14 -9 -23t-23 -9t-23 9t-9 23v278q0 14 9 23t23 9t23 -9t9 -23v-278zM88 386q0 -13 -9.5 -22.5t-22.5 -9.5t-22.5 9.5t-9.5 22.5v253q0 13 9 22.5t23 9.5t23 -9.5t9 -22.5v-253zM168 28v278q0 16 -16 16t-16 -16v-278q0 -16 16 -16t16 16zM72 386v253
q0 16 -16 16t-16 -16v-253q0 -6 4.5 -11t11.5 -5t11.5 5t4.5 11zM146 511l-76 -355h-16l76 355h16z" />
    <glyph glyph-name="ampersand" unicode="&#x26;" horiz-adv-x="128" 
d="M112 338h-16v-338h-32q-14 0 -23 9t-9 23v274q0 26 22 40q-22 15 -22 40v253q0 13 9 22.5t23 9.5t23 -9.5t9 -22.5v-72h-16v72q0 16 -16 16t-16 -16v-253q0 -13 9.5 -22.5t22.5 -9.5v9q0 28 8 51q8 -23 8 -51v-9h16v-16zM80 16v322q-14 0 -23 -9t-9 -23v-274
q0 -16 16 -16h16z" />
    <glyph glyph-name="quotesingle" unicode="'" horiz-adv-x="56" 
d="M36 564q0 -29 -8 -50q-8 25 -8 50v107h16v-107z" />
    <glyph glyph-name="parenleft" unicode="(" horiz-adv-x="113" 
d="M108 -66q-32 0 -54 22t-22 54v648q0 31 22.5 53.5t53.5 22.5v-16q-25 0 -42.5 -18t-17.5 -42v-648q0 -25 17.5 -42.5t42.5 -17.5v-16z" />
    <glyph glyph-name="parenright" unicode=")" horiz-adv-x="113" 
d="M81 10q0 -32 -22.5 -54t-53.5 -22v16q25 0 42.5 17.5t17.5 42.5v648q0 24 -17.5 42t-42.5 18v16q31 0 53.5 -22.5t22.5 -53.5v-648z" />
    <glyph glyph-name="asterisk" unicode="*" horiz-adv-x="128" 
d="M118 625q-7 -20 -27 -44l-18 -20l39 -46l-10 -9l-31 37v-91h-14v91l-31 -37l-10 9l39 46l-17 21q-22 27 -28 43q15 -7 38 -34l9 -11v41q0 32 7 50q7 -19 7 -50v-41l9 11q21 25 38 34z" />
    <glyph glyph-name="plus" unicode="+" horiz-adv-x="144" 
d="M140 346q-22 -8 -50 -8h-10v-32q0 -28 -8 -50q-8 22 -8 50v32h-10q-28 0 -50 8q22 8 50 8h10v32q0 28 8 50q8 -22 8 -50v-32h10q28 0 50 -8z" />
    <glyph glyph-name="comma" unicode="," horiz-adv-x="56" 
d="M36 27q0 -26 -2.5 -34.5t-13.5 -20.5v148h16v-93z" />
    <glyph glyph-name="hyphen" unicode="-" horiz-adv-x="80" 
d="M64 338h-48v16h48v-16z" />
    <glyph glyph-name="period" unicode="." horiz-adv-x="56" 
d="M36 0h-16v120h16v-120z" />
    <glyph glyph-name="slash" unicode="/" horiz-adv-x="84" 
d="M74 667l-48 -667h-16l48 667h16z" />
    <glyph glyph-name="zero" unicode="0" 
d="M92 28q0 -14 -9 -23t-23 -9t-23 9t-9 23v611q0 13 9 22.5t23 9.5t23 -9.5t9 -22.5v-611zM76 28v611q0 16 -16 16t-16 -16v-611q0 -16 16 -16t16 16z" />
    <glyph glyph-name="one" unicode="1" horiz-adv-x="84" 
d="M56 0h-16v651h-32v16h48v-667z" />
    <glyph glyph-name="two" unicode="2" 
d="M96 0h-64v322q0 14 9 23t23 9q7 0 11.5 5t4.5 11v269q0 16 -16 16t-16 -16v-128h-16v128q0 13 9 22.5t23 9.5t23 -9.5t9 -22.5v-269q0 -13 -9.5 -22.5t-22.5 -9.5q-16 0 -16 -16v-306h48v-16z" />
    <glyph glyph-name="three" unicode="3" horiz-adv-x="128" 
d="M96 28q0 -14 -9 -23t-23 -9t-23 9t-9 23v128h16v-128q0 -16 16 -16t16 16v262q0 20 -14 34t-34 14v16q20 0 34 14t14 34v237q0 16 -16 16t-16 -16v-128h-16v128q0 13 9 22.5t23 9.5t23 -9.5t9 -22.5v-237q0 -36 -34 -56q34 -17 34 -56v-262z" />
    <glyph glyph-name="four" unicode="4" 
d="M92 0h-16v338h-48v329h16v-313h32v313h16v-667z" />
    <glyph glyph-name="five" unicode="5" 
d="M96 28q0 -14 -9 -23t-23 -9t-23 9t-9 23v128h16v-128q0 -16 16 -16t16 16v294q0 16 -16 16h-32v329h64v-16h-48v-297h16q14 0 23 -9t9 -23v-294z" />
    <glyph glyph-name="six" unicode="6" horiz-adv-x="128" 
d="M96 28q0 -14 -9 -23t-23 -9t-23 9t-9 23v611q0 13 9 22.5t23 9.5t23 -9.5t9 -22.5v-128h-16v128q0 16 -16 16t-16 -16v-285h16q14 0 23 -9t9 -23v-294zM80 28v294q0 16 -16 16h-16v-310q0 -16 16 -16t16 16z" />
    <glyph glyph-name="seven" unicode="7" horiz-adv-x="115" 
d="M96 667l-58 -667h-16l55 648h-58v19h77z" />
    <glyph glyph-name="eight" unicode="8" horiz-adv-x="128" 
d="M96 28q0 -14 -9 -23t-23 -9t-23 9t-9 23v294q0 14 10 24q-10 10 -10 24v269q0 13 9 22.5t23 9.5t23 -9.5t9 -22.5v-269q0 -16 -11 -24q11 -8 11 -24v-294zM80 28v294q0 16 -16 16t-16 -16v-294q0 -16 16 -16t16 16zM80 370v269q0 16 -16 16t-16 -16v-269q0 -6 4.5 -11
t11.5 -5t11.5 5t4.5 11z" />
    <glyph glyph-name="nine" unicode="9" horiz-adv-x="128" 
d="M96 28q0 -14 -9 -23t-23 -9t-23 9t-9 23v128h16v-128q0 -16 16 -16t16 16v310h-16q-13 0 -22.5 9.5t-9.5 22.5v269q0 13 9 22.5t23 9.5t23 -9.5t9 -22.5v-611zM80 354v285q0 16 -16 16t-16 -16v-269q0 -6 4.5 -11t11.5 -5h16z" />
    <glyph glyph-name="colon" unicode=":" horiz-adv-x="56" 
d="M36 0h-16v120h16v-120zM36 392h-16v119h16v-119z" />
    <glyph glyph-name="semicolon" unicode=";" horiz-adv-x="56" 
d="M36 27q0 -26 -2.5 -34.5t-13.5 -20.5v148h16v-93zM36 392h-16v119h16v-119z" />
    <glyph glyph-name="less" unicode="&#x3c;" horiz-adv-x="80" 
d="M70 0h-16l-42 345l42 322h16l-42 -322z" />
    <glyph glyph-name="equal" unicode="=" horiz-adv-x="120" 
d="M116 370q-22 -8 -50 -8h-12q-28 0 -50 8q22 8 50 8h12q28 0 50 -8zM116 322q-22 -8 -50 -8h-12q-28 0 -50 8q22 8 50 8h12q28 0 50 -8z" />
    <glyph glyph-name="greater" unicode="&#x3e;" horiz-adv-x="80" 
d="M68 345l-42 -345h-16l42 345l-42 322h16z" />
    <glyph glyph-name="question" unicode="?" horiz-adv-x="114" 
d="M86 378q0 -26 -24 -36v-103h-16v115q10 0 17 7.5t7 16.5v261q0 16 -16 16t-16 -16v-128h-16v128q0 13 9 22.5t23 9.5t23 -9.5t9 -22.5v-261zM62 0h-16v120h16v-120z" />
    <glyph glyph-name="at" unicode="@" horiz-adv-x="168" 
d="M116 128q0 -14 -9 -23t-23 -9t-23 9t-9 23v289q0 22 14 39.5t34 22.5v52q0 20 -14 34t-34 14v16q26 0 45 -19t19 -45v-403zM148 69q0 -28 -18.5 -50.5t-45.5 -22.5t-45.5 22.5t-18.5 50.5v529q0 28 18.5 50.5t45.5 22.5t45.5 -22.5t18.5 -50.5v-437q0 -12 -5 -24t-11 -15
v476q0 22 -14 39t-34 17t-34 -17t-14 -39v-529q0 -22 14 -39t34 -17t34 17t14 39h16zM100 128v334q-32 -12 -32 -45v-289q0 -7 5 -11.5t11 -4.5q16 0 16 16z" />
    <glyph glyph-name="A" unicode="A" horiz-adv-x="128" 
d="M96 -4q-11 12 -13.5 21t-2.5 34v287h-32v-287q0 -25 -2.5 -34t-13.5 -21v643q0 13 9 22.5t23 9.5t23 -9.5t9 -22.5v-643zM80 354v285q0 16 -16 16t-16 -16v-285h32z" />
    <glyph glyph-name="B" unicode="B" 
d="M96 64q0 -26 -19 -45t-45 -19v667q26 0 45 -19t19 -45v-201q0 -36 -34 -56q34 -17 34 -56v-226zM80 64v226q0 34 -32 46v-318q32 14 32 46zM80 402v201q0 34 -32 46v-292q14 5 23 17.5t9 27.5z" />
    <glyph glyph-name="C" unicode="C" horiz-adv-x="120" 
d="M95 28q0 -14 -9.5 -23t-22.5 -9t-22.5 9t-9.5 23v611q0 13 9.5 22.5t22.5 9.5t22.5 -9.5t9.5 -22.5v-128h-16v128q0 16 -16 16t-16 -16v-611q0 -16 16 -16t16 16v128h16v-128z" />
    <glyph glyph-name="D" unicode="D" 
d="M96 64q0 -26 -19 -45t-45 -19v667q26 0 45 -19t19 -45v-539zM80 64v539q0 34 -32 46v-631q32 14 32 46z" />
    <glyph glyph-name="E" unicode="E" horiz-adv-x="110" 
d="M96 0q-26 0 -45 19t-19 45v603h64v-16h-48v-297h32v-16h-32v-274q0 -20 14 -34t34 -14v-16z" />
    <glyph glyph-name="F" unicode="F" horiz-adv-x="108" 
d="M96 651h-48v-297h32v-16h-32v-287q0 -25 -2.5 -34t-13.5 -21v671h64v-16z" />
    <glyph glyph-name="G" unicode="G" horiz-adv-x="126" 
d="M96 28q0 -14 -9 -23t-23 -9t-23 9t-9 23v611q0 13 9 22.5t23 9.5t23 -9.5t9 -22.5v-128h-16v128q0 16 -16 16t-16 -16v-611q0 -16 16 -16t16 16v310h-16v16h32v-326z" />
    <glyph glyph-name="H" unicode="H" horiz-adv-x="128" 
d="M96 0h-16v338h-32v-338h-16v667h16v-313h32v313h16v-667z" />
    <glyph glyph-name="I" unicode="I" horiz-adv-x="80" 
d="M48 46q0 -28 -8 -50q-8 22 -8 50v575q0 28 8 50q8 -22 8 -50v-575z" />
    <glyph glyph-name="J" unicode="J" horiz-adv-x="112" 
d="M80 64q0 -26 -19 -45t-45 -19v16q20 0 34 14t14 34v587h-48v16h64v-603z" />
    <glyph glyph-name="K" unicode="K" 
d="M96 -4q-11 12 -13.5 20.5t-2.5 34.5v239q0 34 -32 46v-336h-16v667h16v-310q14 5 23 17.5t9 27.5v214q0 26 2.5 34.5t13.5 20.5v-269q0 -36 -34 -56q34 -17 34 -56v-294z" />
    <glyph glyph-name="L" unicode="L" horiz-adv-x="98" 
d="M96 0h-64v667h16v-651h48v-16z" />
    <glyph glyph-name="M" unicode="M" horiz-adv-x="168" 
d="M140 0h-16v595q0 37 -32 55v-261q0 -28 -8 -51q-8 23 -8 51v261q-32 -18 -32 -55v-595h-16v595q0 31 18 50.5t38 25.5q20 -6 38 -25.5t18 -50.5v-595z" />
    <glyph glyph-name="N" unicode="N" 
d="M96 0h-16v603q0 34 -32 46v-649h-16v667q26 0 45 -19t19 -45v-603z" />
    <glyph glyph-name="O" unicode="O" horiz-adv-x="128" 
d="M96 28q0 -14 -9 -23t-23 -9t-23 9t-9 23v611q0 13 9 22.5t23 9.5t23 -9.5t9 -22.5v-611zM80 28v611q0 16 -16 16t-16 -16v-611q0 -16 16 -16t16 16z" />
    <glyph glyph-name="P" unicode="P" horiz-adv-x="120" 
d="M96 402q0 -22 -14 -39.5t-34 -22.5v-340h-16v667q26 0 45 -19t19 -45v-201zM80 402v201q0 34 -32 46v-292q14 5 23 17.5t9 27.5z" />
    <glyph glyph-name="Q" unicode="Q" horiz-adv-x="128" 
d="M96 28q0 -14 -9 -23t-23 -9t-23 9t-9 23v611q0 13 9 22.5t23 9.5t23 -9.5t9 -22.5v-611zM80 28v611q0 16 -16 16t-16 -16v-611q0 -16 16 -16t16 16zM96 -28q-15 -8 -32 -8t-32 8q15 8 32 8t32 -8z" />
    <glyph glyph-name="R" unicode="R" 
d="M96 -4q-11 12 -13.5 20.5t-2.5 34.5v239q0 34 -32 46v-336h-16v667q26 0 45 -19t19 -45v-201q0 -36 -34 -56q34 -17 34 -56v-294zM80 402v201q0 34 -32 46v-292q14 5 23 17.5t9 27.5z" />
    <glyph glyph-name="S" unicode="S" horiz-adv-x="120" 
d="M92 28q0 -14 -9 -23t-23 -9t-23 9t-9 23v128h16v-128q0 -16 16 -16t16 16v294q0 16 -16 16q-13 0 -22.5 9.5t-9.5 22.5v269q0 13 9 22.5t23 9.5t23 -9.5t9 -22.5v-128h-16v128q0 16 -16 16t-16 -16v-269q0 -6 4.5 -11t11.5 -5q14 0 23 -9t9 -23v-294z" />
    <glyph glyph-name="T" unicode="T" horiz-adv-x="86" 
d="M83 651h-32v-651h-16v651h-32v16h80v-16z" />
    <glyph glyph-name="U" unicode="U" 
d="M96 0q-26 0 -45 19t-19 45v603h16v-603q0 -34 32 -46v649h16v-667z" />
    <glyph glyph-name="V" unicode="V" horiz-adv-x="112" 
d="M90 667l-26 -667h-16l-26 667h16l18 -495l18 495h16z" />
    <glyph glyph-name="W" unicode="W" horiz-adv-x="168" 
d="M140 72q0 -31 -18 -50.5t-38 -25.5q-20 6 -38 25.5t-18 50.5v595h16v-595q0 -37 32 -55v270q0 28 8 51q8 -23 8 -51v-270q32 18 32 55v595h16v-595z" />
    <glyph glyph-name="X" unicode="X" horiz-adv-x="112" 
d="M90 0h-16l-18 262l-18 -262h-16l27 338l-27 329h16l18 -252l18 252h16l-27 -329z" />
    <glyph glyph-name="Y" unicode="Y" horiz-adv-x="120" 
d="M88 0h-16v340q-20 5 -34 22.5t-14 39.5v265h16v-265q0 -15 9 -27.5t23 -17.5v310h16v-667z" />
    <glyph glyph-name="Z" unicode="Z" horiz-adv-x="90" 
d="M77 0h-64l47 651h-47v16h64l-47 -651h47v-16z" />
    <glyph glyph-name="bracketleft" unicode="[" horiz-adv-x="110" 
d="M108 -66h-76v800h76v-16h-60v-768h60v-16z" />
    <glyph glyph-name="backslash" unicode="\" horiz-adv-x="84" 
d="M74 0h-16l-48 667h16z" />
    <glyph glyph-name="bracketright" unicode="]" horiz-adv-x="110" 
d="M78 -66h-76v16h60v768h-60v16h76v-800z" />
    <glyph glyph-name="asciicircum" unicode="^" horiz-adv-x="268" 
d="M260 286q-20 0 -31 21l-95 167l-95 -167q-11 -21 -31 -21l118 209h16z" />
    <glyph glyph-name="underscore" unicode="_" horiz-adv-x="128" 
d="M128 -48h-128v16h128v-16z" />
    <glyph glyph-name="grave" unicode="`" horiz-adv-x="128" 
d="M80 687q-19 0 -29 20l-14 28h19z" />
    <glyph glyph-name="a" unicode="a" horiz-adv-x="128" 
d="M96 28q0 -14 -9 -23t-23 -9t-23 9t-9 23v421q0 22 14 39.5t34 22.5v92q0 20 -14 34t-34 14v16q26 0 45 -19t19 -45v-575zM80 28v466q-32 -12 -32 -45v-421q0 -16 16 -16t16 16z" />
    <glyph glyph-name="b" unicode="b" 
d="M96 28q0 -14 -9 -23t-23 -9t-23 9t-9 23v639h16v-156q20 -5 34 -22.5t14 -39.5v-421zM80 28v421q0 33 -32 45v-466q0 -16 16 -16t16 16z" />
    <glyph glyph-name="c" unicode="c" horiz-adv-x="112" 
d="M96 0q-26 0 -45 19t-19 45v539q0 26 19 45t45 19v-16q-20 0 -34 -14t-14 -34v-539q0 -20 14 -34t34 -14v-16z" />
    <glyph glyph-name="d" unicode="d" 
d="M92 28q0 -14 -9 -23t-23 -9t-23 9t-9 23v421q0 22 14 39.5t34 22.5v156h16v-639zM76 28v466q-32 -12 -32 -45v-421q0 -16 16 -16t16 16z" />
    <glyph glyph-name="e" unicode="e" 
d="M96 0q-26 0 -45 19t-19 45v575q0 13 9 22.5t23 9.5t23 -9.5t9 -22.5v-301h-48v-274q0 -20 14 -34t34 -14v-16zM80 354v285q0 16 -16 16t-16 -16v-285h32z" />
    <glyph glyph-name="f" unicode="f" horiz-adv-x="100" 
d="M92 651q-20 0 -34 -14t-14 -34v-249h32v-16h-32v-287q0 -26 -2.5 -34.5t-13.5 -20.5v342h-16v16h16v249q0 26 19 45t45 19v-16z" />
    <glyph glyph-name="g" unicode="g" horiz-adv-x="128" 
d="M96 64q0 -26 -19 -45t-45 -19v16q20 0 34 14t14 34v92q-20 5 -34 22.5t-14 39.5v421q0 13 9 22.5t23 9.5t23 -9.5t9 -22.5v-575zM80 173v466q0 16 -16 16t-16 -16v-421q0 -15 9 -27.5t23 -17.5z" />
    <glyph glyph-name="h" unicode="h" 
d="M96 -4q-11 12 -13.5 20.5t-2.5 34.5v398q0 33 -32 45v-494h-16v667h16v-156q20 -5 34 -22.5t14 -39.5v-453z" />
    <glyph glyph-name="i" unicode="i" horiz-adv-x="80" 
d="M48 46q0 -28 -8 -50q-8 22 -8 50v410q0 28 8 50q8 -22 8 -50v-410zM48 547h-16v120h16v-120z" />
    <glyph glyph-name="j" unicode="j" horiz-adv-x="104" 
d="M72 64q0 -26 -19 -45t-45 -19v16q20 0 34 14t14 34v392q0 28 8 50q8 -22 8 -50v-392zM72 547h-16v120h16v-120z" />
    <glyph glyph-name="k" unicode="k" horiz-adv-x="122" 
d="M96 -4q-11 12 -13.5 20.5t-2.5 34.5v239q0 34 -32 46v-336h-16v667h16v-310q14 5 23 17.5t9 27.5v54q0 26 2.5 34.5t13.5 20.5v-109q0 -36 -34 -56q34 -17 34 -56v-294z" />
    <glyph glyph-name="l" unicode="l" horiz-adv-x="80" 
d="M48 46q0 -28 -8 -50q-8 22 -8 50v575q0 28 8 50q8 -22 8 -50v-575z" />
    <glyph glyph-name="m" unicode="m" horiz-adv-x="144" 
d="M112 0h-16v627q0 23 -16 28v-266q0 -28 -8 -51q-8 23 -8 51v266q-16 -5 -16 -28v-627h-16v627q0 22 12 33t28 11t28 -11.5t12 -32.5v-627z" />
    <glyph glyph-name="n" unicode="n" horiz-adv-x="127" 
d="M96 0h-16v639q0 16 -16 16t-16 -16v-639h-16v639q0 13 9 22.5t23 9.5t23 -9.5t9 -22.5v-639z" />
    <glyph glyph-name="o" unicode="o" 
d="M94 28q0 -14 -9 -23t-23 -9t-23 9t-9 23v611q0 13 9 22.5t23 9.5t23 -9.5t9 -22.5v-611zM78 28v611q0 16 -16 16t-16 -16v-611q0 -16 16 -16t16 16z" />
    <glyph glyph-name="p" unicode="p" 
d="M96 218q0 -22 -14 -39.5t-34 -22.5v-156h-16v639q0 13 9 22.5t23 9.5t23 -9.5t9 -22.5v-421zM80 218v421q0 16 -16 16t-16 -16v-466q14 5 23 17.5t9 27.5z" />
    <glyph glyph-name="q" unicode="q" 
d="M92 -4q-11 12 -13.5 20.5t-2.5 34.5v105q-20 5 -34 22.5t-14 39.5v421q0 13 9 22.5t23 9.5t23 -9.5t9 -22.5v-643zM76 173v466q0 16 -16 16t-16 -16v-421q0 -15 9 -27.5t23 -17.5z" />
    <glyph glyph-name="r" unicode="r" horiz-adv-x="100" 
d="M92 651q-20 0 -34 -14t-14 -34v-603h-16v603q0 26 19 45t45 19v-16z" />
    <glyph glyph-name="s" unicode="s" horiz-adv-x="100" 
d="M82 78q4 -35 -16 -56.5t-48 -21.5v16q21 0 36 16.5t12 45.5l-48 511q-4 35 16 56.5t48 21.5v-16q-21 0 -36 -16.5t-12 -45.5z" />
    <glyph glyph-name="t" unicode="t" horiz-adv-x="100" 
d="M92 0q-26 0 -45 19t-19 45v431h-16v16h16v165q11 -12 13.5 -20.5t2.5 -34.5v-110h32v-16h-32v-431q0 -20 14 -34t34 -14v-16z" />
    <glyph glyph-name="u" unicode="u" 
d="M94 28q0 -14 -9 -23t-23 -9t-23 9t-9 23v639h16v-639q0 -16 16 -16t16 16v639h16v-639z" />
    <glyph glyph-name="v" unicode="v" 
d="M94 414q0 -399 -32 -418q-32 19 -32 418v253h16v-253q0 -118 3 -213t6.5 -137.5t6.5 -48.5q3 6 6.5 49t6.5 136.5t3 213.5v253h16v-253z" />
    <glyph glyph-name="w" unicode="w" horiz-adv-x="136" 
d="M108 40q0 -22 -12 -33t-28 -11t-28 11.5t-12 32.5v627h16v-627q0 -23 16 -28v266q0 28 8 51q8 -23 8 -51v-266q16 5 16 28v627h16v-627z" />
    <glyph glyph-name="x" unicode="x" 
d="M92 0h-16v310q0 16 -16 16t-16 -16v-310h-16v310q0 14 10 24q-10 10 -10 24v309h16v-309q0 -16 16 -16t16 16v309h16v-309q0 -15 -11 -24q11 -9 11 -24v-310z" />
    <glyph glyph-name="y" unicode="y" 
d="M94 -4q-11 12 -13.5 21t-2.5 34v105q-20 5 -34 22.5t-14 39.5v453q11 -12 13.5 -21t2.5 -34v-398q0 -33 32 -45v494h16v-671z" />
    <glyph glyph-name="z" unicode="z" horiz-adv-x="90" 
d="M77 0h-64l47 651h-47v16h64l-47 -651h47v-16z" />
    <glyph glyph-name="braceleft" unicode="{" horiz-adv-x="120" 
d="M115 -66q-31 0 -53.5 22t-22.5 54v328h-32v16h32v304q0 31 22.5 53.5t53.5 22.5v-16q-25 0 -42.5 -18t-17.5 -42v-648q0 -25 17.5 -42.5t42.5 -17.5v-16z" />
    <glyph glyph-name="bar" unicode="|" horiz-adv-x="80" 
d="M48 -200h-16v1000h16v-1000z" />
    <glyph glyph-name="braceright" unicode="}" horiz-adv-x="120" 
d="M113 338h-32v-328q0 -32 -22.5 -54t-53.5 -22v16q25 0 42.5 17.5t17.5 42.5v648q0 24 -17.5 42t-42.5 18v16q31 0 53.5 -22.5t22.5 -53.5v-304h32v-16z" />
    <glyph glyph-name="asciitilde" unicode="~" horiz-adv-x="309" 
d="M295 364q0 -28 -16.5 -46t-51.5 -18l-145 48q-51 0 -51 -48h-17q0 28 17.5 46.5t50.5 18.5l145 -48q51 0 51 47h17z" />
    <glyph glyph-name="uni00A0" unicode="&#xa0;" horiz-adv-x="80" 
 />
    <glyph glyph-name="exclamdown" unicode="&#xa1;" horiz-adv-x="80" 
d="M48 46q0 -28 -8 -50q-8 22 -8 50v415q0 28 8 50q8 -22 8 -50v-415zM48 547h-16v120h16v-120z" />
    <glyph glyph-name="cent" unicode="&#xa2;" horiz-adv-x="104" 
d="M88 94q0 -26 -24 -31v-63h-16v63q-24 5 -24 31v478q0 26 24 31v64h16v-64q24 -5 24 -31v-61h-16v61q0 16 -16 16t-16 -16v-478q0 -16 16 -16t16 16v62h16v-62z" />
    <glyph glyph-name="sterling" unicode="&#xa3;" horiz-adv-x="120" 
d="M96 0h-64v639q0 13 9 22.5t23 9.5t23 -9.5t9 -22.5v-128h-16v128q0 16 -16 16t-16 -16v-285h32v-16h-32v-322h48v-16z" />
    <glyph glyph-name="currency" unicode="&#xa4;" horiz-adv-x="128" 
d="M128 338h-32v-338h-16v158q-21 5 -34.5 22.5t-13.5 39.5v118h-32v16h32v313h16v-158q21 -5 34.5 -22.5t13.5 -39.5v-93h32v-16zM80 174v164h-32v-118q0 -32 32 -46zM80 354v93q0 34 -32 46v-139h32z" />
    <glyph glyph-name="yen" unicode="&#xa5;" horiz-adv-x="120" 
d="M104 172h-16v-172h-16v172h-64v16h64v32h-64v16h64v104q-20 5 -34 22.5t-14 39.5v265h16v-265q0 -15 9 -27.5t23 -17.5v310h16v-431h16v-16h-16v-32h16v-16z" />
    <glyph glyph-name="brokenbar" unicode="&#xa6;" horiz-adv-x="700" 
d="M700 350l-350 -350l-350 350l350 350zM683 350l-333 333l-83 -83l83 -83l-167 -167l84 -83l166 166l84 -83l-167 -167l83 -83z" />
    <glyph glyph-name="section" unicode="&#xa7;" horiz-adv-x="120" 
d="M92 28q0 -14 -9 -23t-23 -9t-23 9t-9 23v72h16v-72q0 -16 16 -16t16 16v128h-16q-14 0 -23 9t-9 23v451q0 13 9 22.5t23 9.5t23 -9.5t9 -22.5v-72h-16v72q0 16 -16 16t-16 -16v-128h16q14 0 23 -9.5t9 -22.5v-451zM76 172v307q0 16 -16 16h-16v-307q0 -16 16 -16h16z" />
    <glyph glyph-name="dieresis" unicode="&#xa8;" horiz-adv-x="128" 
d="M88 687h-15v48h15v-48zM55 687h-15v48h15v-48z" />
    <glyph glyph-name="copyright" unicode="&#xa9;" horiz-adv-x="168" 
d="M148 155q0 -28 -18.5 -49t-45.5 -21t-45.5 21t-18.5 49v356q0 29 18 52.5t46 23.5t46 -23.5t18 -52.5v-356zM132 155v356q0 23 -13.5 41t-34.5 18t-34.5 -18t-13.5 -41v-356q0 -21 14 -36.5t34 -15.5t34 15.5t14 36.5zM116 211q0 -38 -32 -38t-32 38v266q0 13 9.5 22
t22.5 9t22.5 -9t9.5 -22v-78h-16v78q0 15 -16 15t-16 -15v-266q0 -22 16 -22t16 22v67h16v-67z" />
    <glyph glyph-name="ordfeminine" unicode="&#xaa;" horiz-adv-x="112" 
d="M88 386q-11 12 -13.5 21t-2.5 34v70h-32v-70q0 -25 -2.5 -34t-13.5 -21v253q0 13 9 22.5t23 9.5t23 -9.5t9 -22.5v-253zM72 527v112q0 16 -16 16t-16 -16v-112h32zM88 338h-64v16h64v-16z" />
    <glyph glyph-name="guillemotleft" unicode="&#xab;" horiz-adv-x="108" 
d="M104 156h-16l-32 189l32 166h16l-32 -166zM56 156h-16l-32 189l32 166h16l-32 -166z" />
    <glyph glyph-name="logicalnot" unicode="&#xac;" horiz-adv-x="299" 
d="M268 188h-21v153h-217v21h238v-174z" />
    <glyph glyph-name="uni00AD" unicode="&#xad;" horiz-adv-x="80" 
d="M64 338h-48v16h48v-16z" />
    <glyph glyph-name="registered" unicode="&#xae;" horiz-adv-x="168" 
d="M148 155q0 -28 -18.5 -49t-45.5 -21t-45.5 21t-18.5 49v356q0 29 18 52.5t46 23.5t46 -23.5t18 -52.5v-356zM132 155v356q0 23 -13.5 41t-34.5 18t-34.5 -18t-13.5 -41v-356q0 -21 14 -36.5t34 -15.5t34 15.5t14 36.5zM116 173q-11 12 -13.5 21t-2.5 34v59q0 34 -32 46
v-157h-16v333q27 0 45.5 -18.5t18.5 -45.5v-46q0 -36 -34 -56q34 -17 34 -56v-114zM100 399v46q0 16 -9 28.5t-23 17.5v-137q14 5 23 17.5t9 27.5z" />
    <glyph glyph-name="macron" unicode="&#xaf;" horiz-adv-x="128" 
d="M96 687h-64v16h64v-16z" />
    <glyph glyph-name="degree" unicode="&#xb0;" horiz-adv-x="96" 
d="M80 527q0 -13 -9 -22.5t-23 -9.5t-23 9.5t-9 22.5v112q0 13 9 22.5t23 9.5t23 -9.5t9 -22.5v-112zM64 527v112q0 16 -16 16t-16 -16v-112q0 -16 16 -16t16 16z" />
    <glyph glyph-name="plusminus" unicode="&#xb1;" horiz-adv-x="298" 
d="M263 291h-104v-108h-22v108h-107v22h107v107h22v-107h104v-22zM268 104h-233v21h233v-21z" />
    <glyph glyph-name="twosuperior" unicode="&#xb2;" horiz-adv-x="216" 
d="M22 285v17l38 64q47 81 70 135.5t23 107.5q0 87 -62 87q-30 0 -56 -32l-7 12q28 38 68 38q36 0 55.5 -27.5t19.5 -77.5q0 -39 -14 -82.5t-30.5 -75t-49.5 -89.5l-34 -59h134v-18h-155z" />
    <glyph glyph-name="threesuperior" unicode="&#xb3;" horiz-adv-x="207" 
d="M33 673l-6 16q27 24 60 24t53 -24t20 -70q0 -78 -59 -100q33 -8 50 -40.5t17 -71.5q0 -56 -25 -90t-64 -34q-33 0 -60 24l7 16q25 -23 51 -23q29 0 50.5 27.5t21.5 79.5q0 44 -19 72t-47 28h-6v21h3q25 0 43 24t18 64t-15.5 59.5t-40.5 19.5q-30 0 -52 -22z" />
    <glyph glyph-name="acute" unicode="&#xb4;" horiz-adv-x="128" 
d="M91 735l-14 -28q-10 -20 -29 -20l24 48h19z" />
    <glyph glyph-name="mu" unicode="&#xb5;" horiz-adv-x="700" 
d="M700 350l-350 -350l-350 350l350 350zM683 350l-333 333l-83 -83l83 -83l-167 -167l84 -83l166 166l84 -83l-167 -167l83 -83z" />
    <glyph glyph-name="paragraph" unicode="&#xb6;" horiz-adv-x="134" 
d="M80 0h-16v340q-20 5 -34 22.5t-14 39.5v237q0 13 9 22.5t23 9.5t23 -9.5t9 -22.5v-639zM112 0h-16v667h16v-667zM64 357v282q0 16 -16 16t-16 -16v-237q0 -15 9 -27.5t23 -17.5z" />
    <glyph glyph-name="periodcentered" unicode="&#xb7;" horiz-adv-x="56" 
d="M36 287h-16v120h16v-120z" />
    <glyph glyph-name="cedilla" unicode="&#xb8;" horiz-adv-x="128" 
d="M71 -15q0 -23 -14 -26v50h14v-24z" />
    <glyph glyph-name="onesuperior" unicode="&#xb9;" horiz-adv-x="172" 
d="M106 285h-18v402l-55 -44l-4 16l65 53h12v-427z" />
    <glyph glyph-name="ordmasculine" unicode="&#xba;" horiz-adv-x="112" 
d="M88 418q0 -14 -9 -23t-23 -9t-23 9t-9 23v221q0 13 9 22.5t23 9.5t23 -9.5t9 -22.5v-221zM72 418v221q0 16 -16 16t-16 -16v-221q0 -16 16 -16t16 16zM88 338h-64v16h64v-16z" />
    <glyph glyph-name="guillemotright" unicode="&#xbb;" horiz-adv-x="108" 
d="M100 345l-32 -189h-16l32 189l-32 166h16zM52 345l-32 -189h-16l32 189l-32 166h16z" />
    <glyph glyph-name="onequarter" unicode="&#xbc;" horiz-adv-x="390" 
d="M309 0h-19v134h-90v14l93 262h16v-258h48v-18h-48v-134zM99 283h-19v397l-57 -44l-7 15l67 52h16v-420zM85 -16h-17l195 731h17zM290 152l1 218l-73 -218h72z" />
    <glyph glyph-name="onehalf" unicode="&#xbd;" horiz-adv-x="405" 
d="M222 0v17l39 67q46 78 68.5 133.5t22.5 108.5q0 88 -60 88q-31 0 -57 -32l-8 12q28 37 68 37q76 0 76 -104q0 -55 -23 -110.5t-71 -137.5l-35 -60h134v-19h-154zM99 283h-19v397l-57 -44l-7 15l67 52h16v-420zM85 -16h-17l195 731h17z" />
    <glyph glyph-name="threequarters" unicode="&#xbe;" horiz-adv-x="423" 
d="M33 669l-6 15q28 25 60 25q33 0 53 -24.5t20 -69.5q0 -33 -14.5 -61.5t-44.5 -39.5q33 -8 50 -40t17 -71q0 -56 -25 -90.5t-64 -34.5q-34 0 -60 25l7 15q26 -22 51 -22q29 0 50.5 27.5t21.5 79.5q0 44 -19 72t-47 28h-6v21h3q24 0 42.5 24.5t18.5 62.5q0 40 -15.5 60.5
t-40.5 20.5q-27 0 -52 -23zM341 0h-19v134h-89v14l92 262h16v-258h48v-18h-48v-134zM118 -16h-17l194 731h18zM322 152l1 218l-73 -218h72z" />
    <glyph glyph-name="questiondown" unicode="&#xbf;" horiz-adv-x="114" 
d="M92 28q0 -14 -9 -23t-23 -9t-23 9t-9 23v261q0 26 24 36v103h16v-115q-10 0 -17 -7.5t-7 -16.5v-261q0 -16 16 -16t16 16v128h16v-128zM68 547h-16v120h16v-120z" />
    <glyph glyph-name="Agrave" unicode="&#xc0;" horiz-adv-x="128" 
d="M96 -4q-11 12 -13.5 21t-2.5 34v287h-32v-287q0 -25 -2.5 -34t-13.5 -21v643q0 13 9 22.5t23 9.5t23 -9.5t9 -22.5v-643zM80 354v285q0 16 -16 16t-16 -16v-285h32zM80 687q-19 0 -29 20l-14 28h19z" />
    <glyph glyph-name="Aacute" unicode="&#xc1;" horiz-adv-x="128" 
d="M96 -4q-11 12 -13.5 21t-2.5 34v287h-32v-287q0 -25 -2.5 -34t-13.5 -21v643q0 13 9 22.5t23 9.5t23 -9.5t9 -22.5v-643zM80 354v285q0 16 -16 16t-16 -16v-285h32zM91 735l-14 -28q-10 -20 -29 -20l24 48h19z" />
    <glyph glyph-name="Acircumflex" unicode="&#xc2;" horiz-adv-x="128" 
d="M96 -4q-11 12 -13.5 21t-2.5 34v287h-32v-287q0 -25 -2.5 -34t-13.5 -21v643q0 13 9 22.5t23 9.5t23 -9.5t9 -22.5v-643zM80 354v285q0 16 -16 16t-16 -16v-285h32zM99 687q-19 0 -31 24l-4 6l-4 -6q-12 -24 -31 -24l27 48h16z" />
    <glyph glyph-name="Atilde" unicode="&#xc3;" horiz-adv-x="128" 
d="M96 -4q-11 12 -13.5 21t-2.5 34v287h-32v-287q0 -25 -2.5 -34t-13.5 -21v643q0 13 9 22.5t23 9.5t23 -9.5t9 -22.5v-643zM80 354v285q0 16 -16 16t-16 -16v-285h32zM96 694q-11 -10 -32 -4q-20 6 -32 -4v18q12 11 35 3q17 -6 29 5v-18z" />
    <glyph glyph-name="Adieresis" unicode="&#xc4;" horiz-adv-x="128" 
d="M96 -4q-11 12 -13.5 21t-2.5 34v287h-32v-287q0 -25 -2.5 -34t-13.5 -21v643q0 13 9 22.5t23 9.5t23 -9.5t9 -22.5v-643zM80 354v285q0 16 -16 16t-16 -16v-285h32zM88 687h-15v48h15v-48zM55 687h-15v48h15v-48z" />
    <glyph glyph-name="Aring" unicode="&#xc5;" horiz-adv-x="128" 
d="M96 -4q-11 12 -13.5 21t-2.5 34v287h-32v-287q0 -25 -2.5 -34t-13.5 -21v643q0 13 9 22.5t23 9.5t23 -9.5t9 -22.5v-643zM80 354v285q0 16 -16 16t-16 -16v-285h32zM96 711q0 -10 -7 -17t-17 -7h-16q-10 0 -17 7t-7 17t7 17t17 7h16q10 0 17 -7t7 -17zM83 711q0 10 -9 10
h-20q-9 0 -9 -10t9 -10h20q9 0 9 10z" />
    <glyph glyph-name="AE" unicode="&#xc6;" horiz-adv-x="152" 
d="M136 0q-23 0 -39.5 16.5t-16.5 39.5v282h-32v-287q0 -25 -2.5 -34t-13.5 -21v599q0 27 15 47t33 25h56v-16h-40v-297h32v-16h-32v-282q0 -16 12 -28t28 -12v-16zM80 354v296q-32 -19 -32 -55v-241h32z" />
    <glyph glyph-name="Ccedilla" unicode="&#xc7;" horiz-adv-x="120" 
d="M96 28q0 -26 -24 -31v-12q0 -23 -14 -26v38q-10 1 -18 10.5t-8 20.5v611q0 13 9 22.5t23 9.5t23 -9.5t9 -22.5v-128h-16v128q0 16 -16 16t-16 -16v-611q0 -16 16 -16t16 16v128h16v-128z" />
    <glyph glyph-name="Egrave" unicode="&#xc8;" horiz-adv-x="110" 
d="M96 0q-26 0 -45 19t-19 45v603h64v-16h-48v-297h32v-16h-32v-274q0 -20 14 -34t34 -14v-16zM80 687q-19 0 -29 20l-14 28h19z" />
    <glyph glyph-name="Eacute" unicode="&#xc9;" horiz-adv-x="110" 
d="M96 0q-26 0 -45 19t-19 45v603h64v-16h-48v-297h32v-16h-32v-274q0 -20 14 -34t34 -14v-16zM91 735l-14 -28q-10 -20 -29 -20l24 48h19z" />
    <glyph glyph-name="Ecircumflex" unicode="&#xca;" horiz-adv-x="110" 
d="M96 0q-26 0 -45 19t-19 45v603h64v-16h-48v-297h32v-16h-32v-274q0 -20 14 -34t34 -14v-16zM99 687q-19 0 -31 24l-4 6l-4 -6q-12 -24 -31 -24l27 48h16z" />
    <glyph glyph-name="Edieresis" unicode="&#xcb;" horiz-adv-x="110" 
d="M96 0q-26 0 -45 19t-19 45v603h64v-16h-48v-297h32v-16h-32v-274q0 -20 14 -34t34 -14v-16zM55 687h-15v48h15v-48zM88 687h-15v48h15v-48z" />
    <glyph glyph-name="Igrave" unicode="&#xcc;" horiz-adv-x="80" 
d="M48 46q0 -28 -8 -50q-8 22 -8 50v575q0 28 8 50q8 -22 8 -50v-575zM56 687q-19 0 -29 20l-14 28h19z" />
    <glyph glyph-name="Iacute" unicode="&#xcd;" horiz-adv-x="80" 
d="M48 46q0 -28 -8 -50q-8 22 -8 50v575q0 28 8 50q8 -22 8 -50v-575zM67 735l-14 -28q-10 -20 -29 -20l24 48h19z" />
    <glyph glyph-name="Icircumflex" unicode="&#xce;" horiz-adv-x="80" 
d="M48 46q0 -28 -8 -50q-8 22 -8 50v575q0 28 8 50q8 -22 8 -50v-575zM75 687q-19 0 -31 24l-4 6l-4 -6q-12 -24 -31 -24l27 48h16z" />
    <glyph glyph-name="Idieresis" unicode="&#xcf;" horiz-adv-x="80" 
d="M48 46q0 -28 -8 -50q-8 22 -8 50v575q0 28 8 50q8 -22 8 -50v-575zM31 687h-15v48h15v-48zM64 687h-15v48h15v-48z" />
    <glyph glyph-name="Eth" unicode="&#xd0;" 
d="M96 64q0 -26 -19 -45t-45 -19v338h-16v16h16v313q26 0 45 -19t19 -45v-539zM80 64v539q0 34 -32 46v-295h16v-16h-16v-320q32 14 32 46z" />
    <glyph glyph-name="Ntilde" unicode="&#xd1;" 
d="M96 0h-16v603q0 34 -32 46v-649h-16v667q26 0 45 -19t19 -45v-603zM96 694q-11 -10 -32 -4q-20 6 -32 -4v18q12 11 35 3q17 -6 29 5v-18z" />
    <glyph glyph-name="Ograve" unicode="&#xd2;" horiz-adv-x="128" 
d="M96 28q0 -14 -9 -23t-23 -9t-23 9t-9 23v611q0 13 9 22.5t23 9.5t23 -9.5t9 -22.5v-611zM80 28v611q0 16 -16 16t-16 -16v-611q0 -16 16 -16t16 16zM80 687q-19 0 -29 20l-14 28h19z" />
    <glyph glyph-name="Oacute" unicode="&#xd3;" horiz-adv-x="128" 
d="M96 28q0 -14 -9 -23t-23 -9t-23 9t-9 23v611q0 13 9 22.5t23 9.5t23 -9.5t9 -22.5v-611zM80 28v611q0 16 -16 16t-16 -16v-611q0 -16 16 -16t16 16zM91 735l-14 -28q-10 -20 -29 -20l24 48h19z" />
    <glyph glyph-name="Ocircumflex" unicode="&#xd4;" horiz-adv-x="128" 
d="M96 28q0 -14 -9 -23t-23 -9t-23 9t-9 23v611q0 13 9 22.5t23 9.5t23 -9.5t9 -22.5v-611zM80 28v611q0 16 -16 16t-16 -16v-611q0 -16 16 -16t16 16zM99 687q-19 0 -31 24l-4 6l-4 -6q-12 -24 -31 -24l27 48h16z" />
    <glyph glyph-name="Otilde" unicode="&#xd5;" horiz-adv-x="128" 
d="M96 28q0 -14 -9 -23t-23 -9t-23 9t-9 23v611q0 13 9 22.5t23 9.5t23 -9.5t9 -22.5v-611zM80 28v611q0 16 -16 16t-16 -16v-611q0 -16 16 -16t16 16zM96 694q-11 -10 -32 -4q-20 6 -32 -4v18q12 11 35 3q17 -6 29 5v-18z" />
    <glyph glyph-name="Odieresis" unicode="&#xd6;" horiz-adv-x="128" 
d="M96 28q0 -14 -9 -23t-23 -9t-23 9t-9 23v611q0 13 9 22.5t23 9.5t23 -9.5t9 -22.5v-611zM80 28v611q0 16 -16 16t-16 -16v-611q0 -16 16 -16t16 16zM88 687h-15v48h15v-48zM55 687h-15v48h15v-48z" />
    <glyph glyph-name="multiply" unicode="&#xd7;" horiz-adv-x="299" 
d="M257 130l-17 -14l-91 141l-91 -143l-17 14l95 146l-96 148l17 13l92 -144l93 143l16 -14l-94 -145z" />
    <glyph glyph-name="Oslash" unicode="&#xd8;" horiz-adv-x="128" 
d="M96 28q0 -14 -9 -23t-23 -9t-23 9t-9 23v611q0 13 9 22.5t23 9.5t23 -9.5t9 -22.5v-611zM80 28v354l-32 -148v-206q0 -16 16 -16t16 16zM80 444v195q0 16 -16 16t-16 -16v-343z" />
    <glyph glyph-name="Ugrave" unicode="&#xd9;" 
d="M96 0q-26 0 -45 19t-19 45v603h16v-603q0 -34 32 -46v649h16v-667zM80 687q-19 0 -29 20l-14 28h19z" />
    <glyph glyph-name="Uacute" unicode="&#xda;" 
d="M96 0q-26 0 -45 19t-19 45v603h16v-603q0 -34 32 -46v649h16v-667zM91 735l-14 -28q-10 -20 -29 -20l24 48h19z" />
    <glyph glyph-name="Ucircumflex" unicode="&#xdb;" 
d="M96 0q-26 0 -45 19t-19 45v603h16v-603q0 -34 32 -46v649h16v-667zM99 687q-19 0 -31 24l-4 6l-4 -6q-12 -24 -31 -24l27 48h16z" />
    <glyph glyph-name="Udieresis" unicode="&#xdc;" 
d="M96 0q-26 0 -45 19t-19 45v603h16v-603q0 -34 32 -46v649h16v-667zM55 687h-15v48h15v-48zM88 687h-15v48h15v-48z" />
    <glyph glyph-name="Yacute" unicode="&#xdd;" horiz-adv-x="120" 
d="M88 0h-16v340q-20 5 -34 22.5t-14 39.5v265h16v-265q0 -15 9 -27.5t23 -17.5v310h16v-667zM83 735l-14 -28q-10 -20 -29 -20l24 48h19z" />
    <glyph glyph-name="Thorn" unicode="&#xde;" 
d="M96 218q0 -22 -14 -39.5t-34 -22.5v-156h-16v667h16v-156q20 -5 34 -22.5t14 -39.5v-231zM80 218v231q0 33 -32 45v-321q14 5 23 17.5t9 27.5z" />
    <glyph glyph-name="germandbls" unicode="&#xdf;" 
d="M96 64q0 -26 -19 -45t-45 -19v16q20 0 34.5 14.5t13.5 33.5v242q0 14 -9 23t-23 9v-182h-16v182h-16v16h16v285q0 13 9 22.5t23 9.5t23 -9.5t9 -22.5v-253q0 -25 -22 -40q22 -14 22 -40v-242zM80 386v253q0 16 -16 16t-16 -16v-285q13 0 22.5 9.5t9.5 22.5z" />
    <glyph glyph-name="agrave" unicode="&#xe0;" horiz-adv-x="128" 
d="M96 28q0 -14 -9 -23t-23 -9t-23 9t-9 23v421q0 22 14 39.5t34 22.5v92q0 20 -14 34t-34 14v16q26 0 45 -19t19 -45v-575zM80 28v466q-32 -12 -32 -45v-421q0 -16 16 -16t16 16zM81 687q-19 0 -29 20l-14 28h19z" />
    <glyph glyph-name="aacute" unicode="&#xe1;" horiz-adv-x="128" 
d="M96 28q0 -14 -9 -23t-23 -9t-23 9t-9 23v421q0 22 14 39.5t34 22.5v92q0 20 -14 34t-34 14v16q26 0 45 -19t19 -45v-575zM80 28v466q-32 -12 -32 -45v-421q0 -16 16 -16t16 16zM80 735l-14 -28q-10 -20 -29 -20l24 48h19z" />
    <glyph glyph-name="acircumflex" unicode="&#xe2;" horiz-adv-x="128" 
d="M96 28q0 -14 -9 -23t-23 -9t-23 9t-9 23v421q0 22 14 39.5t34 22.5v92q0 20 -14 34t-34 14v16q26 0 45 -19t19 -45v-575zM80 28v466q-32 -12 -32 -45v-421q0 -16 16 -16t16 16zM95 687q-19 0 -31 24l-4 6l-4 -6q-12 -24 -31 -24l27 48h16z" />
    <glyph glyph-name="atilde" unicode="&#xe3;" horiz-adv-x="128" 
d="M96 28q0 -14 -9 -23t-23 -9t-23 9t-9 23v421q0 22 14 39.5t34 22.5v92q0 20 -14 34t-34 14v16q26 0 45 -19t19 -45v-575zM80 28v466q-32 -12 -32 -45v-421q0 -16 16 -16t16 16zM96 695q-11 -10 -32 -4q-20 6 -32 -4v18q12 11 35 3q17 -6 29 5v-18z" />
    <glyph glyph-name="adieresis" unicode="&#xe4;" horiz-adv-x="128" 
d="M96 28q0 -14 -9 -23t-23 -9t-23 9t-9 23v421q0 22 14 39.5t34 22.5v92q0 20 -14 34t-34 14v16q26 0 45 -19t19 -45v-575zM80 28v466q-32 -12 -32 -45v-421q0 -16 16 -16t16 16zM85 687h-15v48h15v-48zM52 687h-15v48h15v-48z" />
    <glyph glyph-name="aring" unicode="&#xe5;" horiz-adv-x="128" 
d="M96 28q0 -14 -9 -23t-23 -9t-23 9t-9 23v421q0 22 14 39.5t34 22.5v92q0 20 -14 34t-34 14v16q26 0 45 -19t19 -45v-575zM80 28v466q-32 -12 -32 -45v-421q0 -16 16 -16t16 16zM95 711q0 -10 -7 -17t-17 -7h-16q-10 0 -17 7t-7 17t7 17t17 7h16q10 0 17 -7t7 -17zM82 711
q0 10 -9 10h-20q-9 0 -9 -10t9 -10h20q9 0 9 10z" />
    <glyph glyph-name="ae" unicode="&#xe6;" horiz-adv-x="172" 
d="M143 71q0 -30 -18 -50t-38 -26q-20 6 -38 26t-18 50v378q0 22 14 39.5t34 22.5v139q-32 -18 -32 -55v-28h-16v28q0 31 18 50.5t38 25.5q20 -6 38 -25.5t18 -50.5v-257h-48v-322q32 19 32 55v85h16v-85zM79 16v479q-32 -12 -32 -46v-378q0 -37 32 -55zM127 354v241
q0 37 -32 55v-296h32z" />
    <glyph glyph-name="ccedilla" unicode="&#xe7;" horiz-adv-x="112" 
d="M96 0q-12 0 -25 5v-21q0 -22 -14 -26v55q-25 21 -25 51v539q0 26 19 45t45 19v-16q-20 0 -34 -14t-14 -34v-539q0 -20 14 -34t34 -14v-16z" />
    <glyph glyph-name="egrave" unicode="&#xe8;" 
d="M96 0q-26 0 -45 19t-19 45v575q0 13 9 22.5t23 9.5t23 -9.5t9 -22.5v-301h-48v-274q0 -20 14 -34t34 -14v-16zM80 354v285q0 16 -16 16t-16 -16v-285h32zM80 687q-19 0 -29 20l-14 28h19z" />
    <glyph glyph-name="eacute" unicode="&#xe9;" 
d="M96 0q-26 0 -45 19t-19 45v575q0 13 9 22.5t23 9.5t23 -9.5t9 -22.5v-301h-48v-274q0 -20 14 -34t34 -14v-16zM80 354v285q0 16 -16 16t-16 -16v-285h32zM91 735l-14 -28q-10 -20 -29 -20l24 48h19z" />
    <glyph glyph-name="ecircumflex" unicode="&#xea;" 
d="M96 0q-26 0 -45 19t-19 45v575q0 13 9 22.5t23 9.5t23 -9.5t9 -22.5v-301h-48v-274q0 -20 14 -34t34 -14v-16zM80 354v285q0 16 -16 16t-16 -16v-285h32zM99 687q-19 0 -31 24l-4 6l-4 -6q-12 -24 -31 -24l27 48h16z" />
    <glyph glyph-name="edieresis" unicode="&#xeb;" 
d="M96 0q-26 0 -45 19t-19 45v575q0 13 9 22.5t23 9.5t23 -9.5t9 -22.5v-301h-48v-274q0 -20 14 -34t34 -14v-16zM80 354v285q0 16 -16 16t-16 -16v-285h32zM88 687h-15v48h15v-48zM55 687h-15v48h15v-48z" />
    <glyph glyph-name="igrave" unicode="&#xec;" horiz-adv-x="80" 
d="M48 46q0 -28 -8 -50q-8 22 -8 50v575q0 28 8 50q8 -22 8 -50v-575zM56 687q-19 0 -29 20l-14 28h19z" />
    <glyph glyph-name="iacute" unicode="&#xed;" horiz-adv-x="80" 
d="M48 46q0 -28 -8 -50q-8 22 -8 50v575q0 28 8 50q8 -22 8 -50v-575zM67 735l-14 -28q-10 -20 -29 -20l24 48h19z" />
    <glyph glyph-name="icircumflex" unicode="&#xee;" horiz-adv-x="80" 
d="M48 46q0 -28 -8 -50q-8 22 -8 50v575q0 28 8 50q8 -22 8 -50v-575zM75 687q-19 0 -31 24l-4 6l-4 -6q-12 -24 -31 -24l27 48h16z" />
    <glyph glyph-name="idieresis" unicode="&#xef;" horiz-adv-x="80" 
d="M48 46q0 -28 -8 -50q-8 22 -8 50v575q0 28 8 50q8 -22 8 -50v-575zM31 687h-15v48h15v-48zM64 687h-15v48h15v-48z" />
    <glyph glyph-name="eth" unicode="&#xf0;" 
d="M108 567h-16v-539q0 -14 -9 -23t-23 -9t-23 9t-9 23v421q0 22 14 39.5t34 22.5v56h-16v16h16v84h16v-84h16v-16zM76 28v466q-32 -12 -32 -45v-421q0 -16 16 -16t16 16z" />
    <glyph glyph-name="ntilde" unicode="&#xf1;" horiz-adv-x="127" 
d="M96 0h-16v639q0 16 -16 16t-16 -16v-639h-16v639q0 13 9 22.5t23 9.5t23 -9.5t9 -22.5v-639zM97 695q-11 -10 -32 -4q-20 6 -32 -4v18q12 11 35 3q17 -6 29 5v-18z" />
    <glyph glyph-name="ograve" unicode="&#xf2;" 
d="M94 28q0 -14 -9 -23t-23 -9t-23 9t-9 23v611q0 13 9 22.5t23 9.5t23 -9.5t9 -22.5v-611zM78 28v611q0 16 -16 16t-16 -16v-611q0 -16 16 -16t16 16zM78 687q-19 0 -29 20l-14 28h19z" />
    <glyph glyph-name="oacute" unicode="&#xf3;" 
d="M94 28q0 -14 -9 -23t-23 -9t-23 9t-9 23v611q0 13 9 22.5t23 9.5t23 -9.5t9 -22.5v-611zM78 28v611q0 16 -16 16t-16 -16v-611q0 -16 16 -16t16 16zM89 735l-14 -28q-10 -20 -29 -20l24 48h19z" />
    <glyph glyph-name="ocircumflex" unicode="&#xf4;" 
d="M94 28q0 -14 -9 -23t-23 -9t-23 9t-9 23v611q0 13 9 22.5t23 9.5t23 -9.5t9 -22.5v-611zM78 28v611q0 16 -16 16t-16 -16v-611q0 -16 16 -16t16 16zM97 687q-19 0 -31 24l-4 6l-4 -6q-12 -24 -31 -24l27 48h16z" />
    <glyph glyph-name="otilde" unicode="&#xf5;" 
d="M94 28q0 -14 -9 -23t-23 -9t-23 9t-9 23v611q0 13 9 22.5t23 9.5t23 -9.5t9 -22.5v-611zM78 28v611q0 16 -16 16t-16 -16v-611q0 -16 16 -16t16 16zM94 694q-11 -10 -32 -4q-20 6 -32 -4v18q12 11 35 3q17 -6 29 5v-18z" />
    <glyph glyph-name="odieresis" unicode="&#xf6;" 
d="M94 28q0 -14 -9 -23t-23 -9t-23 9t-9 23v611q0 13 9 22.5t23 9.5t23 -9.5t9 -22.5v-611zM78 28v611q0 16 -16 16t-16 -16v-611q0 -16 16 -16t16 16zM86 687h-15v48h15v-48zM53 687h-15v48h15v-48z" />
    <glyph glyph-name="divide" unicode="&#xf7;" horiz-adv-x="299" 
d="M175 192q0 -11 -8 -18.5t-19 -7.5t-18 7.5t-7 18.5t7 18.5t18 7.5t19 -7.5t8 -18.5zM268 266h-238v21h238v-21zM175 359q0 -11 -8 -18.5t-19 -7.5t-18 7.5t-7 18.5t7.5 19t17.5 8q11 0 19 -8t8 -19z" />
    <glyph glyph-name="oslash" unicode="&#xf8;" 
d="M94 28q0 -14 -9 -23t-23 -9t-23 9t-9 23v611q0 13 9 22.5t23 9.5t23 -9.5t9 -22.5v-611zM78 28v354l-32 -147v-207q0 -16 16 -16t16 16zM78 444v195q0 16 -16 16t-16 -16v-342z" />
    <glyph glyph-name="ugrave" unicode="&#xf9;" 
d="M94 28q0 -14 -9 -23t-23 -9t-23 9t-9 23v639h16v-639q0 -16 16 -16t16 16v639h16v-639zM76 687q-19 0 -29 20l-14 28h19z" />
    <glyph glyph-name="uacute" unicode="&#xfa;" 
d="M94 28q0 -14 -9 -23t-23 -9t-23 9t-9 23v639h16v-639q0 -16 16 -16t16 16v639h16v-639zM87 735l-14 -28q-10 -20 -29 -20l24 48h19z" />
    <glyph glyph-name="ucircumflex" unicode="&#xfb;" 
d="M94 28q0 -14 -9 -23t-23 -9t-23 9t-9 23v639h16v-639q0 -16 16 -16t16 16v639h16v-639zM95 687q-19 0 -31 24l-4 6l-4 -6q-12 -24 -31 -24l27 48h16z" />
    <glyph glyph-name="udieresis" unicode="&#xfc;" 
d="M94 28q0 -14 -9 -23t-23 -9t-23 9t-9 23v639h16v-639q0 -16 16 -16t16 16v639h16v-639zM51 687h-15v48h15v-48zM84 687h-15v48h15v-48z" />
    <glyph glyph-name="yacute" unicode="&#xfd;" 
d="M94 -4q-11 12 -13.5 21t-2.5 34v105q-20 5 -34 22.5t-14 39.5v453q11 -12 13.5 -21t2.5 -34v-398q0 -33 32 -45v494h16v-671zM87 735l-14 -28q-10 -20 -29 -20l24 48h19z" />
    <glyph glyph-name="thorn" unicode="&#xfe;" 
d="M96 218q0 -22 -14 -39.5t-34 -22.5v-156h-16v667h16v-163q4 7 16 7q14 0 23 -9.5t9 -22.5v-261zM80 218v261q0 16 -16 16t-16 -16v-306q14 5 23 17.5t9 27.5z" />
    <glyph glyph-name="ydieresis" unicode="&#xff;" 
d="M94 -4q-11 12 -13.5 21t-2.5 34v105q-20 5 -34 22.5t-14 39.5v453q11 -12 13.5 -21t2.5 -34v-398q0 -33 32 -45v494h16v-671zM53 687h-15v48h15v-48zM86 687h-15v48h15v-48z" />
    <glyph glyph-name="dotlessi" unicode="&#x131;" horiz-adv-x="80" 
d="M48 46q0 -28 -8 -50q-8 22 -8 50v575q0 28 8 50q8 -22 8 -50v-575z" />
    <glyph glyph-name="Lslash" unicode="&#x141;" horiz-adv-x="98" 
d="M96 0h-64v346l-16 -8v19l16 8v302h16v-294l32 16v-19l-32 -16v-338h48v-16z" />
    <glyph glyph-name="lslash" unicode="&#x142;" horiz-adv-x="80" 
d="M64 362l-16 -8v-308q0 -28 -8 -50q-8 22 -8 50v300l-16 -8v19l16 8v256q0 28 8 50q8 -22 8 -50v-248l16 8v-19z" />
    <glyph glyph-name="OE" unicode="&#x152;" horiz-adv-x="148" 
d="M136 0h-56q-18 5 -33 25t-15 47v523q0 27 15 47t33 25h56v-16h-40v-297h32v-16h-32v-322h40v-16zM80 17v633q-32 -19 -32 -55v-523q0 -36 32 -55z" />
    <glyph glyph-name="oe" unicode="&#x153;" horiz-adv-x="172" 
d="M141 72q0 -31 -18 -50.5t-38 -25.5q-20 6 -38 25.5t-18 50.5v523q0 31 18 50.5t38 25.5q20 -6 38 -25.5t18 -50.5v-257h-48v-321q32 18 32 55v84h16v-84zM77 17v633q-32 -18 -32 -55v-523q0 -37 32 -55zM125 354v241q0 37 -32 55v-296h32z" />
    <glyph glyph-name="Scaron" unicode="&#x160;" horiz-adv-x="120" 
d="M92 28q0 -14 -9 -23t-23 -9t-23 9t-9 23v128h16v-128q0 -16 16 -16t16 16v294q0 16 -16 16q-13 0 -22.5 9.5t-9.5 22.5v269q0 13 9 22.5t23 9.5t23 -9.5t9 -22.5v-128h-16v128q0 16 -16 16t-16 -16v-269q0 -6 4.5 -11t11.5 -5q14 0 23 -9t9 -23v-294zM95 735l-27 -48h-16
l-27 48q19 0 31 -24l4 -6l4 6q12 24 31 24z" />
    <glyph glyph-name="scaron" unicode="&#x161;" horiz-adv-x="100" 
d="M82 78q4 -35 -16 -56.5t-48 -21.5v16q21 0 36 16.5t12 45.5l-48 511q-4 35 16 56.5t48 21.5v-16q-21 0 -36 -16.5t-12 -45.5zM87 735l-27 -48h-16l-27 48q19 0 31 -24l4 -6l4 6q12 24 31 24z" />
    <glyph glyph-name="Ydieresis" unicode="&#x178;" horiz-adv-x="120" 
d="M88 0h-16v340q-20 5 -34 22.5t-14 39.5v265h16v-265q0 -15 9 -27.5t23 -17.5v310h16v-667zM47 687h-15v48h15v-48zM80 687h-15v48h15v-48z" />
    <glyph glyph-name="Zcaron" unicode="&#x17d;" horiz-adv-x="90" 
d="M77 0h-64l47 651h-47v16h64l-47 -651h47v-16zM81 735l-27 -48h-16l-27 48q19 0 31 -24l4 -6l4 6q12 24 31 24z" />
    <glyph glyph-name="zcaron" unicode="&#x17e;" horiz-adv-x="90" 
d="M77 0h-64l47 651h-47v16h64l-47 -651h47v-16zM89 735l-27 -48h-16l-27 48q19 0 31 -24l4 -6l4 6q12 24 31 24z" />
    <glyph glyph-name="florin" unicode="&#x192;" horiz-adv-x="96" 
d="M92 651q-20 0 -34 -14t-14 -34v-249h32v-16h-32v-340q0 -27 -19 -45.5t-45 -18.5v16q20 0 34 14t14 34v605q0 26 19 45t45 19v-16z" />
    <glyph glyph-name="circumflex" unicode="&#x2c6;" horiz-adv-x="128" 
d="M99 687q-19 0 -31 24l-4 6l-4 -6q-12 -24 -31 -24l27 48h16z" />
    <glyph glyph-name="caron" unicode="&#x2c7;" horiz-adv-x="128" 
d="M99 735l-27 -48h-16l-27 48q19 0 31 -24l4 -6l4 6q12 24 31 24z" />
    <glyph glyph-name="breve" unicode="&#x2d8;" horiz-adv-x="128" 
d="M96 719q0 -13 -9 -22.5t-23 -9.5t-23 9.5t-9 22.5v16h16v-16q0 -16 16 -16t16 16v16h16v-16z" />
    <glyph glyph-name="dotaccent" unicode="&#x2d9;" horiz-adv-x="80" 
d="M48 687h-16v48h16v-48z" />
    <glyph glyph-name="ring" unicode="&#x2da;" horiz-adv-x="128" 
d="M96 711q0 -10 -7 -17t-17 -7h-16q-10 0 -17 7t-7 17t7 17t17 7h16q10 0 17 -7t7 -17zM83 711q0 10 -9 10h-20q-9 0 -9 -10t9 -10h20q9 0 9 10z" />
    <glyph glyph-name="ogonek" unicode="&#x2db;" horiz-adv-x="128" 
d="M71 -41q-14 3 -14 26v24h14v-50z" />
    <glyph glyph-name="tilde" unicode="&#x2dc;" horiz-adv-x="128" 
d="M96 694q-11 -10 -32 -4q-20 6 -32 -4v18q12 11 35 3q17 -6 29 5v-18z" />
    <glyph glyph-name="hungarumlaut" unicode="&#x2dd;" horiz-adv-x="128" 
d="M111 735l-24 -48h-18l24 48h18zM70 735l-24 -48h-18l24 48h18z" />
    <glyph glyph-name="uni037E" unicode="&#x37e;" horiz-adv-x="56" 
d="M36 27q0 -26 -2.5 -34.5t-13.5 -20.5v148h16v-93zM36 392h-16v119h16v-119z" />
    <glyph glyph-name="uni0394" unicode="&#x394;" horiz-adv-x="301" 
d="M21 0v15l120 650h20l120 -650v-15h-260zM42 19h218l-110 607z" />
    <glyph glyph-name="uni03A9" unicode="&#x3a9;" horiz-adv-x="321" 
d="M115 20q-29 66 -48.5 162t-19.5 184q0 150 33 226.5t81 76.5t81 -76.5t33 -226.5q0 -89 -19.5 -185t-49.5 -161h90v-20h-112v13q29 56 50 160t21 188q0 133 -26 209.5t-68 76.5t-68.5 -77t-26.5 -209q0 -84 21 -188t50 -160v-13h-112v20h90z" />
    <glyph glyph-name="uni03BC" unicode="&#x3bc;" horiz-adv-x="700" 
d="M700 350l-350 -350l-350 350l350 350zM683 350l-333 333l-83 -83l83 -83l-167 -167l84 -83l166 166l84 -83l-167 -167l83 -83z" />
    <glyph glyph-name="pi" unicode="&#x3c0;" horiz-adv-x="282" 
d="M260 494h-45v-362q0 -98 8 -132h-18q-10 22 -10 128v366h-96q0 -126 -11 -276t-26 -218h-18q33 157 35 494q-38 0 -56 -7l-4 17q22 9 67 9h176z" />
    <glyph glyph-name="uni2007" unicode="&#x2007;" 
 />
    <glyph glyph-name="uni2008" unicode="&#x2008;" horiz-adv-x="56" 
 />
    <glyph glyph-name="uni200B" unicode="&#x200b;" horiz-adv-x="0" 
 />
    <glyph glyph-name="endash" unicode="&#x2013;" horiz-adv-x="112" 
d="M96 338h-80v16h80v-16z" />
    <glyph glyph-name="emdash" unicode="&#x2014;" horiz-adv-x="144" 
d="M128 338h-112v16h112v-16z" />
    <glyph glyph-name="quoteleft" unicode="&#x2018;" horiz-adv-x="56" 
d="M36 511h-16v105q0 26 2.5 34.5t13.5 20.5v-160z" />
    <glyph glyph-name="quoteright" unicode="&#x2019;" horiz-adv-x="56" 
d="M36 566q0 -26 -2.5 -34.5t-13.5 -20.5v156h16v-101z" />
    <glyph glyph-name="quotesinglbase" unicode="&#x201a;" horiz-adv-x="56" 
d="M36 19q0 -26 -2.5 -34.5t-13.5 -20.5v156h16v-101z" />
    <glyph glyph-name="quotedblleft" unicode="&#x201c;" horiz-adv-x="104" 
d="M84 511h-16v105q0 26 2.5 34.5t13.5 20.5v-160zM36 511h-16v105q0 26 2.5 34.5t13.5 20.5v-160z" />
    <glyph glyph-name="quotedblright" unicode="&#x201d;" horiz-adv-x="104" 
d="M84 566q0 -26 -2.5 -34.5t-13.5 -20.5v156h16v-101zM36 566q0 -26 -2.5 -34.5t-13.5 -20.5v156h16v-101z" />
    <glyph glyph-name="quotedblbase" unicode="&#x201e;" horiz-adv-x="104" 
d="M84 19q0 -26 -2.5 -34.5t-13.5 -20.5v156h16v-101zM36 19q0 -26 -2.5 -34.5t-13.5 -20.5v156h16v-101z" />
    <glyph glyph-name="dagger" unicode="&#x2020;" horiz-adv-x="108" 
d="M102 495h-40v-448q0 -28 -8 -51q-8 23 -8 51v448h-40v16h40v156h16v-156h40v-16z" />
    <glyph glyph-name="daggerdbl" unicode="&#x2021;" horiz-adv-x="128" 
d="M112 85h-40v-85h-16v85h-40v16h40v187q0 28 8 50q-8 23 -8 51v177h-40v16h40v85h16v-85h40v-16h-40v-177q0 -28 -8 -51q8 -22 8 -50v-187h40v-16z" />
    <glyph glyph-name="bullet" unicode="&#x2022;" horiz-adv-x="64" 
d="M48 346q0 -37 -16 -64q-16 32 -16 64q0 31 16 64q16 -28 16 -64z" />
    <glyph glyph-name="ellipsis" unicode="&#x2026;" horiz-adv-x="152" 
d="M132 0h-16v120h16v-120zM36 0h-16v120h16v-120zM84 0h-16v120h16v-120z" />
    <glyph glyph-name="perthousand" unicode="&#x2030;" horiz-adv-x="304" 
d="M280 28q0 -14 -9 -23t-23 -9t-23 9t-9 23v278q0 14 9 23t23 9t23 -9t9 -23v-278zM184 28q0 -14 -9 -23t-23 -9t-23 9t-9 23v278q0 14 9 23t23 9t23 -9t9 -23v-278zM88 386q0 -13 -9.5 -22.5t-22.5 -9.5t-22.5 9.5t-9.5 22.5v253q0 13 9 22.5t23 9.5t23 -9.5t9 -22.5v-253
zM168 28v278q0 16 -16 16t-16 -16v-278q0 -16 16 -16t16 16zM264 28v278q0 16 -16 16t-16 -16v-278q0 -16 16 -16t16 16zM72 386v253q0 16 -16 16t-16 -16v-253q0 -6 4.5 -11t11.5 -5t11.5 5t4.5 11zM146 511l-76 -355h-16l76 355h16z" />
    <glyph glyph-name="guilsinglleft" unicode="&#x2039;" horiz-adv-x="60" 
d="M56 156h-16l-32 189l32 166h16l-32 -166z" />
    <glyph glyph-name="guilsinglright" unicode="&#x203a;" horiz-adv-x="60" 
d="M52 345l-32 -189h-16l32 189l-32 166h16z" />
    <glyph glyph-name="fraction" unicode="&#x2044;" horiz-adv-x="114" 
d="M111 667l-88 -667h-18l88 667h18z" />
    <glyph glyph-name="Euro" unicode="&#x20ac;" horiz-adv-x="127" 
d="M22 343v16h16v280q0 13 9 22.5t23 9.5t23 -9.5t9 -22.5v-128h-16v128q0 16 -16 16t-16 -16v-280h30v-16h-30v-16h30v-16h-30v-283q0 -16 16 -16t16 16v128h16v-128q0 -14 -9 -23t-23 -9t-23 9t-9 23v283h-16v16h16v16h-16z" />
    <glyph glyph-name="uni2117" unicode="&#x2117;" horiz-adv-x="168" 
d="M148 155q0 -28 -18.5 -49t-45.5 -21t-45.5 21t-18.5 49v356q0 29 18 52.5t46 23.5t46 -23.5t18 -52.5v-356zM132 155v356q0 23 -13.5 41t-34.5 18t-34.5 -18t-13.5 -41v-356q0 -21 14 -36.5t34 -15.5t34 15.5t14 36.5zM120 383q0 -22 -14 -39.5t-34 -22.5v-165h-16v355
q26 0 45 -19t19 -45v-64zM104 383v64q0 34 -32 46v-155q14 5 23 17.5t9 27.5z" />
    <glyph glyph-name="trademark" unicode="&#x2122;" horiz-adv-x="144" 
d="M112 0h-16v295q0 22 -16 35v-124q0 -28 -8 -50q-8 22 -8 50v124q-16 -13 -16 -35v-295h-16v295q0 37 32 55v301h-32v16h80v-16h-32v-301q32 -18 32 -55v-295z" />
    <glyph glyph-name="Omega" unicode="&#x2126;" horiz-adv-x="321" 
d="M115 20q-29 66 -48.5 162t-19.5 184q0 150 33 226.5t81 76.5t81 -76.5t33 -226.5q0 -89 -19.5 -185t-49.5 -161h90v-20h-112v13q29 56 50 160t21 188q0 133 -26 209.5t-68 76.5t-68.5 -77t-26.5 -209q0 -84 21 -188t50 -160v-13h-112v20h90z" />
    <glyph glyph-name="partialdiff" unicode="&#x2202;" horiz-adv-x="273" 
d="M52 710l-9 15q31 44 76 44q26 0 46.5 -14t39 -49.5t29 -107t10.5 -175.5q0 -424 -125 -424q-87 0 -87 217q0 114 33.5 185t83.5 71q49 0 73 -79v41q0 119 -14.5 191t-36.5 98.5t-55 26.5q-39 0 -64 -40zM119 19q46 0 74 91.5t28 245.5q-11 44 -29 69.5t-41 25.5
q-44 0 -71.5 -66t-27.5 -167q0 -199 67 -199z" />
    <glyph glyph-name="Delta" unicode="&#x2206;" horiz-adv-x="301" 
d="M21 0v15l120 650h20l120 -650v-15h-260zM42 19h218l-110 607z" />
    <glyph glyph-name="product" unicode="&#x220f;" horiz-adv-x="700" 
d="M700 350l-350 -350l-350 350l350 350zM683 350l-333 333l-83 -83l83 -83l-167 -167l84 -83l166 166l84 -83l-167 -167l83 -83z" />
    <glyph glyph-name="summation" unicode="&#x2211;" horiz-adv-x="700" 
d="M700 350l-350 -350l-350 350l350 350zM683 350l-333 333l-83 -83l83 -83l-167 -167l84 -83l166 166l84 -83l-167 -167l83 -83z" />
    <glyph glyph-name="minus" unicode="&#x2212;" horiz-adv-x="299" 
d="M268 264h-238v21h238v-21z" />
    <glyph glyph-name="radical" unicode="&#x221a;" horiz-adv-x="238" 
d="M229 665l-79 -665h-24l-63 329l-49 -16l-5 19l69 23l60 -312l72 622h19z" />
    <glyph glyph-name="infinity" unicode="&#x221e;" horiz-adv-x="485" 
d="M446 278q0 -39 -25 -63.5t-65 -24.5q-51 0 -116 70q-64 -70 -119 -70q-37 0 -61.5 22.5t-24.5 58.5q0 39 25 63.5t66 24.5q50 0 115 -71q67 71 121 71q36 0 60 -22.5t24 -58.5zM428 275q0 33 -20 49t-50 16q-27 0 -55.5 -19.5t-49.5 -45.5q62 -67 102 -67q33 0 53 19
t20 48zM230 274q-34 35 -57 50.5t-47 15.5q-32 0 -52 -18t-20 -47q0 -34 20 -50.5t50 -16.5q49 0 106 66z" />
    <glyph glyph-name="integral" unicode="&#x222b;" horiz-adv-x="700" 
d="M700 350l-350 -350l-350 350l350 350zM683 350l-333 333l-83 -83l83 -83l-167 -167l84 -83l166 166l84 -83l-167 -167l83 -83z" />
    <glyph glyph-name="approxequal" unicode="&#x2248;" horiz-adv-x="299" 
d="M266 355l17 -6l-7 -15q-22 -47 -68 -47q-20 0 -58.5 23.5t-57.5 23.5t-30.5 -6.5t-22.5 -26.5l-8 -14l-16 6l7 16q22 46 68 46q23 0 61.5 -24t53.5 -24q36 0 54 36zM268 270l17 -7l-7 -14q-22 -48 -68 -48q-20 0 -58.5 24t-57.5 24q-35 0 -53 -33l-8 -16l-16 7l7 16
q23 47 68 47q23 0 61.5 -24.5t53.5 -24.5q35 0 54 36z" />
    <glyph glyph-name="notequal" unicode="&#x2260;" horiz-adv-x="299" 
d="M268 218h-134l-30 -76l-15 6l27 70h-86v20h93l30 76h-123v21h129l32 80l15 -7l-28 -73h90v-21h-97l-30 -76h127v-20z" />
    <glyph glyph-name="lessequal" unicode="&#x2264;" horiz-adv-x="299" 
d="M262 163l-220 134v14l220 134v-26l-190 -115l190 -115v-26zM265 99h-227v22h227v-22z" />
    <glyph glyph-name="greaterequal" unicode="&#x2265;" horiz-adv-x="299" 
d="M262 297l-220 -134v26l189 115l-189 115v26l220 -134v-14zM265 99h-227v22h227v-22z" />
    <glyph glyph-name="lozenge" unicode="&#x25ca;" horiz-adv-x="328" 
d="M286 350l-115 -361h-16l-114 361l114 361h16zM264 350l-102 323l-99 -323l100 -323z" />
    <glyph glyph-name="fi" unicode="&#xfb01;" horiz-adv-x="140" 
d="M96 46q0 -28 -8 -50q-8 22 -8 50v292h-32v-287q0 -26 -2.5 -34.5t-13.5 -20.5v342h-16v16h16v285q0 13 9 22.5t23 9.5t23 -9.5t9 -22.5v-92h-16v92q0 16 -16 16t-16 -16v-285h32v102q0 28 8 50q8 -22 8 -50v-410z" />
    <glyph glyph-name="fl" unicode="&#xfb02;" horiz-adv-x="130" 
d="M98 46q0 -28 -8 -50q-8 22 -8 50v592q0 17 -16 17t-16 -16v-285h18v-16h-18v-287q0 -26 -2.5 -34.5t-13.5 -20.5v342h-16v16h16v285q0 13 9 22.5t23 9.5t23 -9.5t9 -22.5v-593z" />
    <glyph glyph-name="orn001" horiz-adv-x="128" 
d="M128 338h-32v-338h-16v158q-21 5 -34.5 22.5t-13.5 39.5v118h-32v16h32v313h16v-158q21 -5 34.5 -22.5t13.5 -39.5v-93h32v-16zM80 174v164h-32v-118q0 -32 32 -46zM80 354v93q0 34 -32 46v-139h32z" />
    </font>
</defs>
</svg>
