<?xml version="1.0" encoding="UTF-8"?>
<svg width="201px" height="113px" viewBox="0 0 201 113" version="1.1" xmlns="http://www.w3.org/2000/svg" xmlns:xlink="http://www.w3.org/1999/xlink">
    <!-- Generator: Sketch 53.2 (72643) - https://sketchapp.com -->
    <title>Fill 2</title>
    <desc>Created with Sketch.</desc>
    <g id="Page-1" stroke="none" stroke-width="1" fill="none" fill-rule="evenodd">
        <g id="Desktop" transform="translate(-358.000000, -135.000000)" fill="#FEFEFE">
            <path d="M384.693359,138.362669 L384.693359,135.699622 C373.045716,135.699622 363.394811,140.526394 363.394811,146.351808 L363.394811,187.795469 L358.070174,187.795469 L358.070174,190.458516 L363.394811,190.458516 L363.394811,247.381135 C368.386658,244.718088 368.719448,243.885886 368.719448,238.226913 L368.719448,190.458516 L379.368722,190.458516 L379.368722,187.795469 L368.719448,187.795469 L368.719448,146.351808 C368.719448,141.857917 376.040824,138.362669 384.693359,138.362669 L384.693359,138.362669 Z M386.025802,246.715373 L391.350439,246.715373 L391.350439,226.742524 L386.025802,226.742524 L386.025802,246.715373 Z M429.288478,242.055042 L429.288478,135.699622 L423.963841,135.699622 L423.963841,242.055042 C423.963841,243.553006 421.634312,244.718088 418.639204,244.718088 C415.644096,244.718088 413.314567,243.553006 413.314567,242.055042 L413.314567,135.699622 L407.98993,135.699622 L407.98993,242.055042 C407.98993,245.050969 412.648987,247.381135 418.639204,247.381135 C424.62942,247.381135 429.288478,245.050969 429.288478,242.055042 L429.288478,242.055042 Z M445.925657,246.715373 L451.250294,246.715373 L451.250294,226.742524 L445.925657,226.742524 L445.925657,246.715373 Z M485.194598,233.733022 L469.220687,148.681974 C467.889528,141.857917 476.542063,138.362669 485.194598,138.362669 L485.194598,135.699622 C473.546955,135.699622 462.232101,140.526394 463.89605,148.681974 L479.869961,233.733022 C481.20112,240.557078 472.548585,244.052327 463.89605,244.052327 L463.89605,246.715373 C475.543694,246.715373 486.858547,241.888602 485.194598,233.733022 L485.194598,233.733022 Z M499.501735,246.715373 L504.826372,246.715373 L504.826372,226.742524 L499.501735,226.742524 L499.501735,246.715373 Z M540.101836,246.715373 L540.101836,244.052327 C531.449301,244.052327 524.127925,240.390638 524.127925,236.063187 L524.127925,190.458516 L540.101836,190.458516 L540.101836,140.359953 C540.101836,137.364026 535.442778,135.03386 529.452562,135.03386 C523.462345,135.03386 518.803288,137.364026 518.803288,140.359953 L518.803288,236.063187 C518.803288,241.888602 528.454192,246.715373 540.101836,246.715373 L540.101836,246.715373 Z M534.777199,187.795469 L524.127925,187.795469 L524.127925,140.359953 C524.127925,138.86199 526.457453,137.696907 529.452562,137.696907 C532.44767,137.696907 534.777199,138.86199 534.777199,140.359953 L534.777199,187.795469 Z M552.745537,246.715373 L558.070174,246.715373 L558.070174,226.742524 L552.745537,226.742524 L552.745537,246.715373 Z" id="Fill-2"></path>
        </g>
    </g>
</svg>