<?xml version="1.0" encoding="UTF-8"?>
<svg width="201px" height="61px" viewBox="0 0 201 61" version="1.1" xmlns="http://www.w3.org/2000/svg" xmlns:xlink="http://www.w3.org/1999/xlink">
    <!-- Generator: Sketch 53.2 (72643) - https://sketchapp.com -->
    <title>Fill 5</title>
    <desc>Created with Sketch.</desc>
    <g id="Page-1" stroke="none" stroke-width="1" fill="none" fill-rule="evenodd">
        <g id="Desktop" transform="translate(-359.000000, -291.000000)" fill="#FEFEFE">
            <path d="M371.219883,349.025697 L371.219883,291.360802 L368.332963,291.360802 L368.332963,305.438547 C363.46114,306.070339 359.671944,308.416587 359.671944,311.033824 L359.671944,349.025697 C359.671944,350.649823 362.198161,351.913406 365.446043,351.913406 C368.693925,351.913406 371.219883,350.649823 371.219883,349.025697 L371.219883,349.025697 Z M368.332963,349.025697 C368.332963,349.837889 367.069984,350.469681 365.446043,350.469681 C363.822102,350.469681 362.559123,349.837889 362.559123,349.025697 L362.559123,311.033824 C362.559123,309.138708 365.085081,307.604394 368.332963,306.972603 L368.332963,349.025697 Z M385.653448,347.401312 L385.653448,310.401774 C385.653448,308.055785 385.473096,307.604394 384.209859,305.889938 C382.94688,307.604394 382.766528,308.055785 382.766528,310.401774 L382.766528,347.401312 C382.766528,349.74756 382.94688,350.198691 384.209859,351.913406 C385.473096,350.198691 385.653448,349.74756 385.653448,347.401312 L385.653448,347.401312 Z M382.766528,302.189777 L385.653448,302.189777 L385.653448,291.360802 L382.766528,291.360802 L382.766528,302.189777 Z M416.685833,351.552604 L416.685833,297.858342 C416.685833,293.707309 410.370679,291.541203 406.581484,291 C402.792288,291.541203 396.477134,293.707309 396.477134,297.858342 L396.477134,351.552604 L399.364054,351.552604 L399.364054,297.858342 C399.364054,295.331435 402.250974,293.707309 405.137894,292.895116 L405.137894,316.448182 C405.137894,318.88476 405.318505,319.245562 406.581484,321.050607 C407.844463,319.245562 408.025073,318.88476 408.025073,316.448182 L408.025073,292.895116 C410.911734,293.707309 413.798913,295.331435 413.798913,297.858342 L413.798913,351.552604 L416.685833,351.552604 Z M439.059787,351.552604 L439.059787,350.10862 C434.368315,350.10862 430.398768,348.123174 430.398768,345.776927 L430.398768,321.050607 L439.059787,321.050607 L439.059787,293.887709 C439.059787,292.263066 436.53357,291 433.285688,291 C430.037806,291 427.511848,292.263066 427.511848,293.887709 L427.511848,345.776927 C427.511848,348.935108 432.744116,351.552604 439.059787,351.552604 L439.059787,351.552604 Z M436.172608,319.606623 L430.398768,319.606623 L430.398768,293.887709 C430.398768,293.075517 431.661747,292.443725 433.285688,292.443725 C434.909629,292.443725 436.172608,293.075517 436.172608,293.887709 L436.172608,319.606623 Z M461.432447,351.552604 L461.432447,293.887709 C461.432447,292.263066 458.90623,291 455.658348,291 C452.410725,291 449.884508,292.263066 449.884508,293.887709 L449.884508,351.552604 L452.771428,351.552604 L452.771428,293.887709 C452.771428,293.075517 454.034666,292.443725 455.658348,292.443725 C457.282289,292.443725 458.545268,293.075517 458.545268,293.887709 L458.545268,351.552604 L461.432447,351.552604 Z M481.82098,344.513343 L473.160479,298.399545 C472.438813,294.699643 477.130026,292.804786 481.82098,292.804786 L481.82098,291.360802 C475.505826,291.360802 469.371024,293.977522 470.273559,298.399545 L478.934319,344.513343 C479.655984,348.213246 474.964513,350.10862 470.273559,350.10862 L470.273559,351.552604 C476.588712,351.552604 482.723515,348.935108 481.82098,344.513343 L481.82098,344.513343 Z M493.728329,347.401312 L493.728329,310.401774 C493.728329,308.055785 493.547977,307.604394 492.284998,305.889938 C491.02176,307.604394 490.841409,308.055785 490.841409,310.401774 L490.841409,347.401312 C490.841409,349.74756 491.02176,350.198691 492.284998,351.913406 C493.547977,350.198691 493.728329,349.74756 493.728329,347.401312 L493.728329,347.401312 Z M490.841409,302.189777 L493.728329,302.189777 L493.728329,291.360802 L490.841409,291.360802 L490.841409,302.189777 Z M516.460916,349.025697 L516.460916,293.887709 C516.460916,292.263066 513.934699,291 510.686817,291 C507.438935,291 504.912977,292.263066 504.912977,293.887709 L504.912977,349.025697 C504.912977,350.649823 507.438935,351.913406 510.686817,351.913406 C513.934699,351.913406 516.460916,350.649823 516.460916,349.025697 L516.460916,349.025697 Z M513.573478,349.025697 C513.573478,349.837889 512.310758,350.469681 510.686817,350.469681 C509.062876,350.469681 507.799897,349.837889 507.799897,349.025697 L507.799897,293.887709 C507.799897,293.075517 509.062876,292.443725 510.686817,292.443725 C512.310758,292.443725 513.573478,293.075517 513.573478,293.887709 L513.573478,349.025697 Z M539.194279,351.552604 L539.194279,293.887709 C539.194279,292.263066 536.668062,291 533.420439,291 C530.172557,291 527.646599,292.263066 527.646599,293.887709 L527.646599,351.552604 L530.53326,351.552604 L530.53326,293.887709 C530.53326,293.075517 531.796498,292.443725 533.420439,292.443725 C535.04438,292.443725 536.307359,293.075517 536.307359,293.887709 L536.307359,351.552604 L539.194279,351.552604 Z M559.58333,344.513343 L550.922569,298.399545 C550.200645,294.699643 554.892117,292.804786 559.58333,292.804786 L559.58333,291.360802 C553.268176,291.360802 547.133374,293.977522 548.035391,298.399545 L556.696409,344.513343 C557.418075,348.213246 552.726862,350.10862 548.035391,350.10862 L548.035391,351.552604 C554.350544,351.552604 560.485346,348.935108 559.58333,344.513343 L559.58333,344.513343 Z" id="Fill-5"></path>
        </g>
    </g>
</svg>